<svg width="57" height="68" viewBox="0 0 57 68" fill="none" xmlns="http://www.w3.org/2000/svg">
<path d="M4.1562 22.3673H3.9862C1.79953 22.3673 0.0195312 24.1573 0.0195312 26.334V43.6107C0.0195312 45.7973 1.79953 47.5773 3.9862 47.5773H4.15953C6.34286 47.5773 8.1262 45.794 8.1262 43.6107V26.334C8.12181 25.2828 7.70202 24.2759 6.95836 23.5328C6.21469 22.7898 5.20745 22.3709 4.1562 22.3673ZM10.0229 50.2773C10.0229 52.284 11.6629 53.9173 13.6695 53.9173H17.5695V63.2507C17.5695 65.4407 19.3529 67.2207 21.5362 67.2207H21.7029C23.8929 67.2207 25.6762 65.4373 25.6762 63.2473V53.9173H31.1229V63.2507C31.1229 65.4407 32.9162 67.2207 35.0962 67.2207H35.2629C37.4529 67.2207 39.2329 65.4373 39.2329 63.2473V53.9173H43.1329C45.1362 53.9173 46.7762 52.284 46.7762 50.2773V23.004H10.0229V50.2773ZM37.5529 6.46068L40.6495 1.68401C40.6994 1.61182 40.7342 1.53039 40.7521 1.44451C40.7699 1.35863 40.7703 1.27005 40.7534 1.18399C40.7364 1.09793 40.7024 1.01614 40.6533 0.943455C40.6042 0.870766 40.5411 0.808647 40.4676 0.760767C40.3941 0.712886 40.3117 0.680214 40.2254 0.664679C40.1391 0.649143 40.0505 0.65106 39.965 0.670316C39.8794 0.689571 39.7985 0.725774 39.7272 0.776789C39.6558 0.827805 39.5954 0.892597 39.5495 0.967342L36.3395 5.91068C33.8203 4.88659 31.1256 4.3635 28.4062 4.37068C25.6846 4.36297 22.9876 4.88607 20.4662 5.91068L17.2629 0.967342C17.2159 0.893858 17.1548 0.830466 17.083 0.780866C17.0113 0.731265 16.9304 0.69645 16.8451 0.678452C16.7597 0.660454 16.6717 0.659635 16.586 0.676042C16.5004 0.692448 16.4188 0.725752 16.3462 0.774009C16.2736 0.820961 16.211 0.881777 16.162 0.952968C16.113 1.02416 16.0786 1.10432 16.0606 1.18887C16.0426 1.27341 16.0415 1.36067 16.0574 1.44564C16.0732 1.5306 16.1057 1.61161 16.1529 1.68401L19.2529 6.46068C13.6662 9.20068 9.89953 14.3573 9.89953 20.274C9.89953 20.6407 9.91953 20.9973 9.95286 21.3507H46.8529C46.8819 20.9925 46.8975 20.6334 46.8995 20.274C46.8995 14.3573 43.1329 9.20068 37.5495 6.46068H37.5529ZM19.8495 15.0173C19.6167 15.0178 19.386 14.9723 19.1707 14.8836C18.9553 14.7949 18.7596 14.6647 18.5946 14.5003C18.4296 14.3359 18.2986 14.1407 18.2091 13.9257C18.1196 13.7107 18.0733 13.4802 18.0729 13.2473C18.0724 13.0145 18.1179 12.7838 18.2066 12.5685C18.2953 12.3531 18.4255 12.1574 18.5899 11.9924C18.7543 11.8275 18.9495 11.6965 19.1645 11.6069C19.3795 11.5174 19.61 11.4711 19.8429 11.4707C20.3132 11.4698 20.7646 11.6558 21.0978 11.9877C21.431 12.3197 21.6186 12.7704 21.6195 13.2407C21.6204 13.711 21.4344 14.1624 21.1025 14.4956C20.7705 14.8288 20.3198 15.0165 19.8495 15.0173ZM36.9562 15.0173C36.7233 15.018 36.4926 14.9728 36.2772 14.8843C36.0618 14.7958 35.8659 14.6657 35.7008 14.5015C35.5357 14.3373 35.4045 14.1422 35.3148 13.9273C35.225 13.7124 35.1785 13.4819 35.1779 13.249C35.1772 13.0161 35.2224 12.7854 35.3109 12.57C35.3994 12.3546 35.5295 12.1587 35.6937 11.9936C35.8579 11.8285 36.0531 11.6973 36.268 11.6076C36.4828 11.5179 36.7133 11.4713 36.9462 11.4707C37.4165 11.4693 37.8681 11.6549 38.2016 11.9865C38.5351 12.3182 38.7232 12.7687 38.7245 13.239C38.7259 13.7093 38.5403 14.1609 38.2087 14.4944C37.877 14.8279 37.4265 15.016 36.9562 15.0173ZM52.8162 22.3673H52.6495C50.4662 22.3673 48.6795 24.1573 48.6795 26.334V43.6107C48.6795 45.7973 50.4695 47.5773 52.6495 47.5773H52.8162C55.0062 47.5773 56.7862 45.794 56.7862 43.6107V26.334C56.7862 24.154 55.0029 22.3673 52.8162 22.3673Z" fill="#28B0DC"/>
</svg>
