<svg width="363" height="64" viewBox="0 0 363 64" fill="none" xmlns="http://www.w3.org/2000/svg">
<rect width="363" height="64" fill="white"/>
<circle cx="37" cy="23" r="13.5" fill="#28B0DC" stroke="#28B0DC"/>
<path d="M43.3738 15L35.1262 25.8738L30.25 21.0012L28 23.2512L35.4988 30.75L46 17.25L43.3738 15Z" fill="white"/>
<circle cx="185" cy="23" r="13.5" fill="#28B0DC" stroke="#28B0DC"/>
<path d="M191.374 15L183.126 25.8738L178.25 21.0012L176 23.2512L183.499 30.75L194 17.25L191.374 15Z" fill="white"/>
<circle cx="333" cy="23" r="13.5" fill="#28B0DC" stroke="#28B0DC"/>
<path d="M339.374 15L331.126 25.8738L326.25 21.0012L324 23.2512L331.499 30.75L342 17.25L339.374 15Z" fill="white"/>
<line x1="50" y1="21.5" x2="172" y2="21.5" stroke="#28B0DC" stroke-width="3"/>
<line x1="198" y1="21.5" x2="320" y2="21.5" stroke="#28B0DC" stroke-width="3"/>
<path d="M14.0413 49.3848H10.6077V53H9.12531V44.4688H14.5452V45.6641H10.6077V48.2012H14.0413V49.3848ZM17.3399 53H15.9161V46.6602H17.3399V53ZM15.8282 45.0137C15.8282 44.7949 15.8966 44.6133 16.0333 44.4688C16.1739 44.3242 16.3731 44.252 16.6309 44.252C16.8888 44.252 17.088 44.3242 17.2286 44.4688C17.3692 44.6133 17.4395 44.7949 17.4395 45.0137C17.4395 45.2285 17.3692 45.4082 17.2286 45.5527C17.088 45.6934 16.8888 45.7637 16.6309 45.7637C16.3731 45.7637 16.1739 45.6934 16.0333 45.5527C15.8966 45.4082 15.8282 45.2285 15.8282 45.0137ZM20.6502 53H19.2264V44H20.6502V53ZM23.9605 53H22.5367V44H23.9605V53ZM28.7179 49.7832C28.7179 48.8066 28.9445 48.0234 29.3976 47.4336C29.8507 46.8398 30.4581 46.543 31.2198 46.543C31.8917 46.543 32.4347 46.7773 32.8488 47.2461V44H34.2726V53H32.9835L32.9132 52.3438C32.4874 52.8594 31.9191 53.1172 31.2081 53.1172C30.4659 53.1172 29.8644 52.8184 29.4034 52.2207C28.9464 51.623 28.7179 50.8105 28.7179 49.7832ZM30.1417 49.9062C30.1417 50.5508 30.2648 51.0547 30.5109 51.418C30.7609 51.7773 31.1144 51.957 31.5714 51.957C32.1534 51.957 32.5792 51.6973 32.8488 51.1777V48.4707C32.587 47.9629 32.1652 47.709 31.5831 47.709C31.1222 47.709 30.7667 47.8926 30.5167 48.2598C30.2667 48.623 30.1417 49.1719 30.1417 49.9062ZM38.7899 53.1172C37.8876 53.1172 37.1552 52.834 36.5927 52.2676C36.0341 51.6973 35.7548 50.9395 35.7548 49.9941V49.8184C35.7548 49.1855 35.8759 48.6211 36.118 48.125C36.3641 47.625 36.7079 47.2363 37.1493 46.959C37.5907 46.6816 38.0829 46.543 38.6259 46.543C39.4891 46.543 40.1552 46.8184 40.6239 47.3691C41.0966 47.9199 41.3329 48.6992 41.3329 49.707V50.2812H37.1903C37.2333 50.8047 37.4071 51.2188 37.7118 51.5234C38.0204 51.8281 38.4071 51.9805 38.872 51.9805C39.5243 51.9805 40.0555 51.7168 40.4657 51.1895L41.2333 51.9219C40.9794 52.3008 40.6395 52.5957 40.2138 52.8066C39.7919 53.0137 39.3173 53.1172 38.7899 53.1172ZM38.62 47.6855C38.2294 47.6855 37.913 47.8223 37.6708 48.0957C37.4325 48.3691 37.2802 48.75 37.2138 49.2383H39.9266V49.1328C39.8954 48.6562 39.7684 48.2969 39.5458 48.0547C39.3231 47.8086 39.0145 47.6855 38.62 47.6855ZM44.4674 45.1191V46.6602H45.5866V47.7148H44.4674V51.2539C44.4674 51.4961 44.5143 51.6719 44.608 51.7812C44.7057 51.8867 44.8776 51.9395 45.1237 51.9395C45.2877 51.9395 45.4538 51.9199 45.6217 51.8809V52.9824C45.2975 53.0723 44.985 53.1172 44.6842 53.1172C43.5905 53.1172 43.0436 52.5137 43.0436 51.3066V47.7148H42.0006V46.6602H43.0436V45.1191H44.4674ZM50.7074 53C50.6449 52.8789 50.5902 52.6816 50.5434 52.4082C50.0902 52.8809 49.5355 53.1172 48.8793 53.1172C48.2426 53.1172 47.723 52.9355 47.3207 52.5723C46.9184 52.209 46.7172 51.7598 46.7172 51.2246C46.7172 50.5488 46.9672 50.0312 47.4672 49.6719C47.9711 49.3086 48.6898 49.127 49.6234 49.127H50.4965V48.7109C50.4965 48.3828 50.4047 48.1211 50.2211 47.9258C50.0375 47.7266 49.7582 47.627 49.3832 47.627C49.059 47.627 48.7934 47.709 48.5863 47.873C48.3793 48.0332 48.2758 48.2383 48.2758 48.4883H46.852C46.852 48.1406 46.9672 47.8164 47.1977 47.5156C47.4281 47.2109 47.7406 46.9727 48.1352 46.8008C48.5336 46.6289 48.977 46.543 49.4652 46.543C50.2074 46.543 50.7992 46.7305 51.2406 47.1055C51.682 47.4766 51.9086 48 51.9203 48.6758V51.5352C51.9203 52.1055 52.0004 52.5605 52.1605 52.9004V53H50.7074ZM49.143 51.9746C49.4242 51.9746 49.6879 51.9062 49.934 51.7695C50.184 51.6328 50.3715 51.4492 50.4965 51.2188V50.0234H49.7289C49.2016 50.0234 48.8051 50.1152 48.5395 50.2988C48.2738 50.4824 48.141 50.7422 48.141 51.0781C48.141 51.3516 48.2309 51.5703 48.4105 51.7344C48.5941 51.8945 48.8383 51.9746 49.143 51.9746ZM55.1662 53H53.7423V46.6602H55.1662V53ZM53.6545 45.0137C53.6545 44.7949 53.7228 44.6133 53.8595 44.4688C54.0002 44.3242 54.1994 44.252 54.4572 44.252C54.715 44.252 54.9142 44.3242 55.0548 44.4688C55.1955 44.6133 55.2658 44.7949 55.2658 45.0137C55.2658 45.2285 55.1955 45.4082 55.0548 45.5527C54.9142 45.6934 54.715 45.7637 54.4572 45.7637C54.1994 45.7637 54.0002 45.6934 53.8595 45.5527C53.7228 45.4082 53.6545 45.2285 53.6545 45.0137ZM58.4765 53H57.0527V44H58.4765V53ZM63.8259 51.2773C63.8259 51.0234 63.7204 50.8301 63.5095 50.6973C63.3024 50.5645 62.9567 50.4473 62.4723 50.3457C61.988 50.2441 61.5837 50.1152 61.2595 49.959C60.5485 49.6152 60.193 49.1172 60.193 48.4648C60.193 47.918 60.4235 47.4609 60.8845 47.0938C61.3454 46.7266 61.9313 46.543 62.6423 46.543C63.4001 46.543 64.0114 46.7305 64.4762 47.1055C64.945 47.4805 65.1794 47.9668 65.1794 48.5645H63.7555C63.7555 48.291 63.654 48.0645 63.4509 47.8848C63.2477 47.7012 62.9782 47.6094 62.6423 47.6094C62.3298 47.6094 62.0739 47.6816 61.8747 47.8262C61.6794 47.9707 61.5817 48.1641 61.5817 48.4062C61.5817 48.625 61.6735 48.7949 61.8571 48.916C62.0407 49.0371 62.4118 49.1602 62.9704 49.2852C63.529 49.4062 63.9665 49.5527 64.2829 49.7246C64.6032 49.8926 64.8395 50.0957 64.9919 50.334C65.1481 50.5723 65.2262 50.8613 65.2262 51.2012C65.2262 51.7715 64.9899 52.2344 64.5173 52.5898C64.0446 52.9414 63.4255 53.1172 62.6598 53.1172C62.1403 53.1172 61.6774 53.0234 61.2712 52.8359C60.8649 52.6484 60.5485 52.3906 60.322 52.0625C60.0954 51.7344 59.9821 51.3809 59.9821 51.002H61.3649C61.3845 51.3379 61.5114 51.5977 61.7458 51.7812C61.9802 51.9609 62.2907 52.0508 62.6774 52.0508C63.0524 52.0508 63.3376 51.9805 63.5329 51.8398C63.7282 51.6953 63.8259 51.5078 63.8259 51.2773Z" fill="#5A5A5A"/>
<path d="M149.377 50.2227C149.291 51.1328 148.955 51.8438 148.369 52.3555C147.783 52.8633 147.004 53.1172 146.031 53.1172C145.352 53.1172 144.752 52.957 144.232 52.6367C143.717 52.3125 143.318 51.8535 143.037 51.2598C142.756 50.666 142.609 49.9766 142.598 49.1914V48.3945C142.598 47.5898 142.74 46.8809 143.025 46.2676C143.311 45.6543 143.719 45.1816 144.25 44.8496C144.785 44.5176 145.402 44.3516 146.102 44.3516C147.043 44.3516 147.801 44.6074 148.375 45.1191C148.949 45.6309 149.283 46.3535 149.377 47.2871H147.9C147.83 46.6738 147.65 46.2324 147.361 45.9629C147.076 45.6895 146.656 45.5527 146.102 45.5527C145.457 45.5527 144.961 45.7891 144.613 46.2617C144.27 46.7305 144.094 47.4199 144.086 48.3301V49.0859C144.086 50.0078 144.25 50.7109 144.578 51.1953C144.91 51.6797 145.395 51.9219 146.031 51.9219C146.613 51.9219 147.051 51.791 147.344 51.5293C147.637 51.2676 147.822 50.832 147.9 50.2227H149.377ZM150.543 49.7715C150.543 49.1504 150.666 48.5918 150.912 48.0957C151.158 47.5957 151.504 47.2129 151.949 46.9473C152.394 46.6777 152.906 46.543 153.484 46.543C154.34 46.543 155.033 46.8184 155.564 47.3691C156.099 47.9199 156.388 48.6504 156.431 49.5605L156.437 49.8945C156.437 50.5195 156.316 51.0781 156.074 51.5703C155.836 52.0625 155.492 52.4434 155.043 52.7129C154.597 52.9824 154.082 53.1172 153.496 53.1172C152.601 53.1172 151.885 52.8203 151.345 52.2266C150.81 51.6289 150.543 50.834 150.543 49.8418V49.7715ZM151.967 49.8945C151.967 50.5469 152.101 51.0586 152.371 51.4297C152.64 51.7969 153.015 51.9805 153.496 51.9805C153.976 51.9805 154.349 51.793 154.615 51.418C154.885 51.043 155.019 50.4941 155.019 49.7715C155.019 49.1309 154.881 48.623 154.603 48.248C154.33 47.873 153.957 47.6855 153.484 47.6855C153.019 47.6855 152.65 47.8711 152.377 48.2422C152.103 48.6094 151.967 49.1602 151.967 49.8945ZM159.203 46.6602L159.244 47.3926C159.712 46.8262 160.328 46.543 161.089 46.543C162.41 46.543 163.082 47.2988 163.105 48.8105V53H161.681V48.8926C161.681 48.4902 161.593 48.1934 161.417 48.002C161.246 47.8066 160.962 47.709 160.568 47.709C159.994 47.709 159.566 47.9688 159.285 48.4883V53H157.861V46.6602H159.203ZM165.179 53V47.7148H164.212V46.6602H165.179V46.2266C165.183 45.7305 165.288 45.3047 165.495 44.9492C165.702 44.5938 165.995 44.3262 166.374 44.1465C166.753 43.9668 167.208 43.877 167.74 43.877C168.052 43.877 168.351 43.9102 168.636 43.9766C168.925 44.043 169.224 44.127 169.532 44.2285L169.316 45.4062C168.777 45.2188 168.284 45.125 167.839 45.125C167.406 45.125 167.091 45.2207 166.896 45.4121C166.7 45.5996 166.603 45.8828 166.603 46.2617V46.6602H167.851V47.7148H166.603V53H165.179ZM170.206 53H168.782V46.6602H170.206V53ZM175.345 47.9609C175.157 47.9297 174.964 47.9141 174.765 47.9141C174.112 47.9141 173.673 48.1641 173.446 48.6641V53H172.022V46.6602H173.382L173.417 47.3691C173.761 46.8184 174.237 46.543 174.847 46.543C175.05 46.543 175.218 46.5703 175.351 46.625L175.345 47.9609ZM177.823 46.6602L177.864 47.3223C178.309 46.8027 178.919 46.543 179.692 46.543C180.54 46.543 181.12 46.8672 181.432 47.5156C181.893 46.8672 182.542 46.543 183.378 46.543C184.077 46.543 184.596 46.7363 184.936 47.123C185.28 47.5098 185.456 48.0801 185.464 48.834V53H184.04V48.875C184.04 48.4727 183.952 48.1777 183.776 47.9902C183.6 47.8027 183.309 47.709 182.903 47.709C182.579 47.709 182.313 47.7969 182.106 47.9727C181.903 48.1445 181.761 48.3711 181.679 48.6523L181.684 53H180.261V48.8281C180.241 48.082 179.86 47.709 179.118 47.709C178.548 47.709 178.143 47.9414 177.905 48.4062V53H176.481V46.6602H177.823ZM190.127 49.7832C190.127 48.8066 190.354 48.0234 190.807 47.4336C191.26 46.8398 191.868 46.543 192.629 46.543C193.301 46.543 193.844 46.7773 194.258 47.2461V44H195.682V53H194.393L194.323 52.3438C193.897 52.8594 193.328 53.1172 192.618 53.1172C191.875 53.1172 191.274 52.8184 190.813 52.2207C190.356 51.623 190.127 50.8105 190.127 49.7832ZM191.551 49.9062C191.551 50.5508 191.674 51.0547 191.92 51.418C192.17 51.7773 192.524 51.957 192.981 51.957C193.563 51.957 193.989 51.6973 194.258 51.1777V48.4707C193.996 47.9629 193.575 47.709 192.993 47.709C192.532 47.709 192.176 47.8926 191.926 48.2598C191.676 48.623 191.551 49.1719 191.551 49.9062ZM200.199 53.1172C199.297 53.1172 198.565 52.834 198.002 52.2676C197.443 51.6973 197.164 50.9395 197.164 49.9941V49.8184C197.164 49.1855 197.285 48.6211 197.527 48.125C197.774 47.625 198.117 47.2363 198.559 46.959C199 46.6816 199.492 46.543 200.035 46.543C200.899 46.543 201.565 46.8184 202.033 47.3691C202.506 47.9199 202.742 48.6992 202.742 49.707V50.2812H198.6C198.643 50.8047 198.816 51.2188 199.121 51.5234C199.43 51.8281 199.816 51.9805 200.281 51.9805C200.934 51.9805 201.465 51.7168 201.875 51.1895L202.643 51.9219C202.389 52.3008 202.049 52.5957 201.623 52.8066C201.201 53.0137 200.727 53.1172 200.199 53.1172ZM200.029 47.6855C199.639 47.6855 199.322 47.8223 199.08 48.0957C198.842 48.3691 198.69 48.75 198.623 49.2383H201.336V49.1328C201.305 48.6562 201.178 48.2969 200.955 48.0547C200.732 47.8086 200.424 47.6855 200.029 47.6855ZM205.877 45.1191V46.6602H206.996V47.7148H205.877V51.2539C205.877 51.4961 205.924 51.6719 206.017 51.7812C206.115 51.8867 206.287 51.9395 206.533 51.9395C206.697 51.9395 206.863 51.9199 207.031 51.8809V52.9824C206.707 53.0723 206.394 53.1172 206.094 53.1172C205 53.1172 204.453 52.5137 204.453 51.3066V47.7148H203.41V46.6602H204.453V45.1191H205.877ZM212.117 53C212.054 52.8789 212 52.6816 211.953 52.4082C211.5 52.8809 210.945 53.1172 210.289 53.1172C209.652 53.1172 209.132 52.9355 208.73 52.5723C208.328 52.209 208.127 51.7598 208.127 51.2246C208.127 50.5488 208.377 50.0312 208.877 49.6719C209.38 49.3086 210.099 49.127 211.033 49.127H211.906V48.7109C211.906 48.3828 211.814 48.1211 211.63 47.9258C211.447 47.7266 211.168 47.627 210.793 47.627C210.468 47.627 210.203 47.709 209.996 47.873C209.789 48.0332 209.685 48.2383 209.685 48.4883H208.261C208.261 48.1406 208.377 47.8164 208.607 47.5156C208.838 47.2109 209.15 46.9727 209.545 46.8008C209.943 46.6289 210.386 46.543 210.875 46.543C211.617 46.543 212.209 46.7305 212.65 47.1055C213.091 47.4766 213.318 48 213.33 48.6758V51.5352C213.33 52.1055 213.41 52.5605 213.57 52.9004V53H212.117ZM210.552 51.9746C210.834 51.9746 211.097 51.9062 211.343 51.7695C211.593 51.6328 211.781 51.4492 211.906 51.2188V50.0234H211.138C210.611 50.0234 210.214 50.1152 209.949 50.2988C209.683 50.4824 209.55 50.7422 209.55 51.0781C209.55 51.3516 209.64 51.5703 209.82 51.7344C210.004 51.8945 210.248 51.9746 210.552 51.9746ZM216.576 53H215.152V46.6602H216.576V53ZM215.064 45.0137C215.064 44.7949 215.132 44.6133 215.269 44.4688C215.41 44.3242 215.609 44.252 215.867 44.252C216.124 44.252 216.324 44.3242 216.464 44.4688C216.605 44.6133 216.675 44.7949 216.675 45.0137C216.675 45.2285 216.605 45.4082 216.464 45.5527C216.324 45.6934 216.124 45.7637 215.867 45.7637C215.609 45.7637 215.41 45.6934 215.269 45.5527C215.132 45.4082 215.064 45.2285 215.064 45.0137ZM219.886 53H218.462V44H219.886V53ZM225.235 51.2773C225.235 51.0234 225.13 50.8301 224.919 50.6973C224.712 50.5645 224.366 50.4473 223.882 50.3457C223.397 50.2441 222.993 50.1152 222.669 49.959C221.958 49.6152 221.602 49.1172 221.602 48.4648C221.602 47.918 221.833 47.4609 222.294 47.0938C222.755 46.7266 223.341 46.543 224.052 46.543C224.809 46.543 225.421 46.7305 225.886 47.1055C226.354 47.4805 226.589 47.9668 226.589 48.5645H225.165C225.165 48.291 225.063 48.0645 224.86 47.8848C224.657 47.7012 224.388 47.6094 224.052 47.6094C223.739 47.6094 223.483 47.6816 223.284 47.8262C223.089 47.9707 222.991 48.1641 222.991 48.4062C222.991 48.625 223.083 48.7949 223.266 48.916C223.45 49.0371 223.821 49.1602 224.38 49.2852C224.938 49.4062 225.376 49.5527 225.692 49.7246C226.013 49.8926 226.249 50.0957 226.401 50.334C226.558 50.5723 226.636 50.8613 226.636 51.2012C226.636 51.7715 226.399 52.2344 225.927 52.5898C225.454 52.9414 224.835 53.1172 224.069 53.1172C223.55 53.1172 223.087 53.0234 222.681 52.8359C222.274 52.6484 221.958 52.3906 221.731 52.0625C221.505 51.7344 221.391 51.3809 221.391 51.002H222.774C222.794 51.3379 222.921 51.5977 223.155 51.7812C223.39 51.9609 223.7 52.0508 224.087 52.0508C224.462 52.0508 224.747 51.9805 224.942 51.8398C225.138 51.6953 225.235 51.5078 225.235 51.2773Z" fill="#5A5A5A"/>
<path d="M308.35 49.8301V53H306.867V44.4688H310.131C311.084 44.4688 311.84 44.7168 312.398 45.2129C312.961 45.709 313.242 46.3652 313.242 47.1816C313.242 48.0176 312.967 48.668 312.416 49.1328C311.869 49.5977 311.102 49.8301 310.113 49.8301H308.35ZM308.35 48.6406H310.131C310.658 48.6406 311.061 48.5176 311.338 48.2715C311.615 48.0215 311.754 47.6621 311.754 47.1934C311.754 46.7324 311.613 46.3652 311.332 46.0918C311.051 45.8145 310.664 45.6719 310.172 45.6641H308.35V48.6406ZM318.363 53C318.301 52.8789 318.246 52.6816 318.199 52.4082C317.746 52.8809 317.191 53.1172 316.535 53.1172C315.898 53.1172 315.379 52.9355 314.976 52.5723C314.574 52.209 314.373 51.7598 314.373 51.2246C314.373 50.5488 314.623 50.0312 315.123 49.6719C315.627 49.3086 316.345 49.127 317.279 49.127H318.152V48.7109C318.152 48.3828 318.06 48.1211 317.877 47.9258C317.693 47.7266 317.414 47.627 317.039 47.627C316.715 47.627 316.449 47.709 316.242 47.873C316.035 48.0332 315.931 48.2383 315.931 48.4883H314.508C314.508 48.1406 314.623 47.8164 314.853 47.5156C315.084 47.2109 315.396 46.9727 315.791 46.8008C316.189 46.6289 316.633 46.543 317.121 46.543C317.863 46.543 318.455 46.7305 318.896 47.1055C319.338 47.4766 319.564 48 319.576 48.6758V51.5352C319.576 52.1055 319.656 52.5605 319.816 52.9004V53H318.363ZM316.799 51.9746C317.08 51.9746 317.344 51.9062 317.59 51.7695C317.84 51.6328 318.027 51.4492 318.152 51.2188V50.0234H317.385C316.857 50.0234 316.461 50.1152 316.195 50.2988C315.929 50.4824 315.797 50.7422 315.797 51.0781C315.797 51.3516 315.886 51.5703 316.066 51.7344C316.25 51.8945 316.494 51.9746 316.799 51.9746ZM323.431 50.9609L324.72 46.6602H326.238L323.718 53.9609C323.332 55.0273 322.675 55.5605 321.75 55.5605C321.542 55.5605 321.314 55.5254 321.064 55.4551V54.3535L321.334 54.3711C321.693 54.3711 321.962 54.3047 322.142 54.1719C322.326 54.043 322.47 53.8242 322.576 53.5156L322.781 52.9707L320.554 46.6602H322.089L323.431 50.9609ZM328.64 46.6602L328.681 47.3223C329.126 46.8027 329.736 46.543 330.509 46.543C331.357 46.543 331.937 46.8672 332.249 47.5156C332.71 46.8672 333.359 46.543 334.195 46.543C334.894 46.543 335.413 46.7363 335.753 47.123C336.097 47.5098 336.273 48.0801 336.281 48.834V53H334.857V48.875C334.857 48.4727 334.769 48.1777 334.593 47.9902C334.417 47.8027 334.126 47.709 333.72 47.709C333.396 47.709 333.13 47.7969 332.923 47.9727C332.72 48.1445 332.577 48.3711 332.495 48.6523L332.501 53H331.077V48.8281C331.058 48.082 330.677 47.709 329.935 47.709C329.365 47.709 328.96 47.9414 328.722 48.4062V53H327.298V46.6602H328.64ZM340.774 53.1172C339.872 53.1172 339.14 52.834 338.577 52.2676C338.019 51.6973 337.739 50.9395 337.739 49.9941V49.8184C337.739 49.1855 337.86 48.6211 338.103 48.125C338.349 47.625 338.692 47.2363 339.134 46.959C339.575 46.6816 340.067 46.543 340.61 46.543C341.474 46.543 342.14 46.8184 342.608 47.3691C343.081 47.9199 343.317 48.6992 343.317 49.707V50.2812H339.175C339.218 50.8047 339.392 51.2188 339.696 51.5234C340.005 51.8281 340.392 51.9805 340.856 51.9805C341.509 51.9805 342.04 51.7168 342.45 51.1895L343.218 51.9219C342.964 52.3008 342.624 52.5957 342.198 52.8066C341.776 53.0137 341.302 53.1172 340.774 53.1172ZM340.605 47.6855C340.214 47.6855 339.897 47.8223 339.655 48.0957C339.417 48.3691 339.265 48.75 339.198 49.2383H341.911V49.1328C341.88 48.6562 341.753 48.2969 341.53 48.0547C341.308 47.8086 340.999 47.6855 340.605 47.6855ZM345.989 46.6602L346.03 47.3926C346.499 46.8262 347.114 46.543 347.876 46.543C349.196 46.543 349.868 47.2988 349.891 48.8105V53H348.468V48.8926C348.468 48.4902 348.38 48.1934 348.204 48.002C348.032 47.8066 347.749 47.709 347.354 47.709C346.78 47.709 346.352 47.9688 346.071 48.4883V53H344.647V46.6602H345.989ZM353.372 45.1191V46.6602H354.491V47.7148H353.372V51.2539C353.372 51.4961 353.419 51.6719 353.512 51.7812C353.61 51.8867 353.782 51.9395 354.028 51.9395C354.192 51.9395 354.358 51.9199 354.526 51.8809V52.9824C354.202 53.0723 353.889 53.1172 353.588 53.1172C352.495 53.1172 351.948 52.5137 351.948 51.3066V47.7148H350.905V46.6602H351.948V45.1191H353.372Z" fill="#5A5A5A"/>
</svg>
