<svg width="61" height="71" viewBox="0 0 61 71" fill="none" xmlns="http://www.w3.org/2000/svg">
<path d="M10 0C10.663 0 11.2989 0.263392 11.7678 0.732233C12.2366 1.20107 12.5 1.83696 12.5 2.5V5H22.5V2.5C22.5 1.83696 22.7634 1.20107 23.2322 0.732233C23.7011 0.263392 24.337 0 25 0C25.663 0 26.2989 0.263392 26.7678 0.732233C27.2366 1.20107 27.5 1.83696 27.5 2.5V5H37.5V2.5C37.5 1.83696 37.7634 1.20107 38.2322 0.732233C38.7011 0.263392 39.337 0 40 0C40.663 0 41.2989 0.263392 41.7678 0.732233C42.2366 1.20107 42.5 1.83696 42.5 2.5V5C44.4891 5 46.3968 5.79018 47.8033 7.1967C49.2098 8.60322 50 10.5109 50 12.5V25.18C47.4035 25.63 45.0104 26.8737 43.15 28.74L36.445 35.45C36.0217 35.1537 35.5167 34.9964 35 35H15C14.337 35 13.7011 35.2634 13.2322 35.7322C12.7634 36.2011 12.5 36.837 12.5 37.5C12.5 38.163 12.7634 38.7989 13.2322 39.2678C13.7011 39.7366 14.337 40 15 40H31.895L21.71 50.18C21.085 50.805 20.51 51.475 19.98 52.18C19.9022 51.5773 19.6076 51.0235 19.1511 50.6223C18.6947 50.2211 18.1077 49.9999 17.5 50H15C14.337 50 13.7011 50.2634 13.2322 50.7322C12.7634 51.2011 12.5 51.837 12.5 52.5C12.5 53.163 12.7634 53.7989 13.2322 54.2678C13.7011 54.7366 14.337 55 15 55H17.5C17.7667 55.0006 18.0317 54.9584 18.285 54.875C17.6159 56.171 17.0991 57.5401 16.745 58.955L15.23 65.01C14.8067 66.6677 14.9294 68.4176 15.58 70H7.5C5.51088 70 3.60322 69.2098 2.1967 67.8033C0.790177 66.3968 0 64.4891 0 62.5V12.5C0 10.5109 0.790177 8.60322 2.1967 7.1967C3.60322 5.79018 5.51088 5 7.5 5V2.5C7.5 1.83696 7.76339 1.20107 8.23223 0.732233C8.70108 0.263392 9.33696 0 10 0ZM12.5 22.5C12.5 23.163 12.7634 23.7989 13.2322 24.2678C13.7011 24.7366 14.337 25 15 25H35C35.663 25 36.2989 24.7366 36.7678 24.2678C37.2366 23.7989 37.5 23.163 37.5 22.5C37.5 21.837 37.2366 21.2011 36.7678 20.7322C36.2989 20.2634 35.663 20 35 20H15C14.337 20 13.7011 20.2634 13.2322 20.7322C12.7634 21.2011 12.5 21.837 12.5 22.5ZM46.69 32.275C48.1533 30.8117 50.138 29.9896 52.2075 29.9896C54.277 29.9896 56.2617 30.8117 57.725 32.275C59.1883 33.7383 60.0104 35.723 60.0104 37.7925C60.0104 39.862 59.1883 41.8467 57.725 43.31L36.28 64.75C34.501 66.5304 32.2715 67.7938 29.83 68.405L23.775 69.92C23.2638 70.0481 22.7281 70.0416 22.2202 69.9011C21.7123 69.7606 21.2495 69.4908 20.8768 69.1182C20.5042 68.7455 20.2344 68.2827 20.0939 67.7748C19.9534 67.2669 19.9469 66.7312 20.075 66.22L21.595 60.17C22.205 57.725 23.465 55.495 25.245 53.72L46.69 32.275Z" fill="#28B0DC"/>
</svg>
