<svg width="20" height="70" viewBox="0 0 20 70" fill="none" xmlns="http://www.w3.org/2000/svg">
<path d="M12.9 0.624799C13.3158 0.987178 13.6002 1.47691 13.7087 2.01772C13.8172 2.55852 13.7438 3.12004 13.5 3.6148C13.4577 3.76108 13.4358 3.91252 13.435 4.0648C13.435 4.3798 13.515 4.9798 14.27 5.7298C14.635 6.0948 14.915 6.3548 15.22 6.6398C15.47 6.8698 15.735 7.1098 16.07 7.4398C16.72 8.0598 17.405 8.7898 18.02 9.7048C19.295 11.6198 20 14.0148 20 17.4998C20 21.6598 18.5 25.2148 16.14 27.4598C17.6 28.9398 18.45 30.8748 18.975 32.8098C20 36.5698 20 41.2198 20 44.8148V44.9998C20 55.2898 18.075 61.3998 15.895 65.0348C15.0714 66.4661 13.9899 67.7325 12.705 68.7698C12.1961 69.1667 11.6423 69.5023 11.055 69.7698C11.055 69.7698 10.42 69.9998 10 69.9998C9.63955 69.9712 9.28465 69.8938 8.945 69.7698C8.35767 69.5023 7.80386 69.1667 7.295 68.7698C6.01014 67.7325 4.92855 66.4661 4.105 65.0348C1.925 61.4048 0 55.2898 0 44.9998V44.8198C0 41.2198 2.23517e-07 36.5748 1.025 32.8048C1.55 30.8748 2.4 28.9398 3.86 27.4548C1.5 25.2198 0 21.6598 0 17.4998C0 15.8698 0.435 13.9248 1.035 12.1298C1.635 10.3298 2.475 8.4698 3.445 6.9698C4.6 5.0198 6.225 3.3848 7.485 2.2848C8.17579 1.67728 8.8967 1.10489 9.645 0.569799L9.795 0.469799L9.84 0.434799L9.855 0.4248L9.865 0.419799C10.3235 0.114183 10.8701 -0.0314054 11.4198 0.00566696C11.9696 0.0427393 12.4917 0.260395 12.905 0.624799H12.9Z" fill="#28B0DC"/>
</svg>
