<svg width="49" height="61" viewBox="0 0 49 61" fill="none" xmlns="http://www.w3.org/2000/svg">
<path d="M10.4997 8.49908C7.69971 8.49908 5.08471 9.26408 2.84971 10.5991C2.60876 8.03504 1.78809 5.55932 0.449707 3.35908C3.69125 1.74015 7.27583 0.928027 10.8986 0.991763C14.5214 1.0555 18.0752 1.99321 21.2578 3.72516C24.4404 5.4571 27.1576 7.93204 29.1784 10.9395C31.1992 13.947 32.4639 17.398 32.8647 20.9991H39.2547C44.0847 20.9991 48.0047 24.9191 48.0047 29.7491V52.2491C48.0047 53.3986 47.7782 54.5368 47.3382 55.5987C46.8981 56.6606 46.2532 57.6254 45.4401 58.438C44.6271 59.2506 43.6619 59.895 42.5997 60.3344C41.5375 60.7739 40.3992 60.9997 39.2497 60.9991H16.7497C14.4291 60.9991 12.2035 60.0772 10.5625 58.4363C8.92158 56.7953 7.99971 54.5697 7.99971 52.2491V45.8641C6.26636 45.6718 4.56145 45.2774 2.91971 44.6891C2.96971 43.5091 2.99971 42.2791 2.99971 40.9991V40.5991C2.99971 39.3991 2.99971 37.9841 2.94971 36.4641C4.50794 37.3767 6.21909 37.9985 7.99971 38.2991V29.7491C7.99971 24.9191 11.9197 20.9991 16.7497 20.9991H25.2947C24.7038 17.503 22.8935 14.3293 20.1851 12.0411C17.4767 9.75283 14.0453 8.49794 10.4997 8.49908ZM32.4447 28.4991C31.4999 32.6313 29.4087 36.4133 26.4113 39.4107C23.414 42.408 19.632 44.4992 15.4997 45.4441V52.2491C15.4997 52.9391 16.0597 53.4991 16.7497 53.4991H39.2497C39.5812 53.4991 39.8992 53.3674 40.1336 53.133C40.368 52.8985 40.4997 52.5806 40.4997 52.2491V29.7491C40.4997 29.4176 40.368 29.0996 40.1336 28.8652C39.8992 28.6308 39.5812 28.4991 39.2497 28.4991H32.4447ZM24.6447 28.4991H16.7497C16.4182 28.4991 16.1002 28.6308 15.8658 28.8652C15.6314 29.0996 15.4997 29.4176 15.4997 29.7491V37.6491C17.6097 36.901 19.5261 35.6914 21.1091 34.1084C22.692 32.5255 23.9017 30.6091 24.6497 28.4991H24.6447Z" fill="#28B0DC"/>
</svg>
