<svg width="64" height="64" viewBox="0 0 64 64" fill="none" xmlns="http://www.w3.org/2000/svg">
<path d="M1.29808 35.1185C0.922624 35.3806 0.657826 35.7727 0.55501 36.2189C0.452193 36.6651 0.518679 37.1335 0.741584 37.5335L5.27758 45.3875C5.74308 46.1925 6.81058 46.525 7.64708 46.1155L21.5001 39.406V63.5H28.5001V36.011L42.7486 29.1055L33.5786 13.2155L1.29808 35.1185ZM61.5996 7.62949C59.7134 4.36768 56.6092 1.98829 52.9693 1.01433C49.3294 0.0403742 45.4517 0.551547 42.1886 2.4355C39.0036 4.273 36.9106 7.192 35.8851 10.447L46.3011 28.493C49.6296 29.235 53.2066 28.878 56.3986 27.0405C59.6623 25.1561 62.0438 22.0524 63.0192 18.4121C63.9945 14.7719 63.4839 10.8933 61.5996 7.62949Z" fill="#28B0DC"/>
</svg>
