<svg width="30" height="24" viewBox="0 0 30 24" fill="none" xmlns="http://www.w3.org/2000/svg">
<path d="M15.7929 3.70711L16.0858 4H16.5H27C27.5304 4 28.0391 4.21071 28.4142 4.58579L29.1213 3.87868L28.4142 4.58579C28.7893 4.96086 29 5.46957 29 6V21C29 21.5304 28.7893 22.0391 28.4142 22.4142C28.0391 22.7893 27.5304 23 27 23H3C2.46957 23 1.96086 22.7893 1.58579 22.4142L0.880375 23.1196L1.58579 22.4142C1.21071 22.0391 1 21.5304 1 21V3C1 1.90228 1.90228 1 3 1H13.0858L15.7929 3.70711Z" stroke="#9D9D9D" stroke-width="2"/>
</svg>
